<?xml version="1.0" encoding="utf-8"?>
<svg id="master-artboard" viewBox="0 0 980 980" version="1.1" xmlns="http://www.w3.org/2000/svg" x="0px" y="0px" style="enable-background:new 0 0 1400 980;" width="980px" height="980px"><rect id="ee-background" x="0" y="0" width="980" height="980" style="fill: white; fill-opacity: 1; pointer-events: none;"/>


<g transform="matrix(1.185006022453308, 0, 0, 1.185006022453308, -3.7458644163555164, -1.7005689301186067e-8)"><rect id="rect-1" x="0" y="0" width="827" height="827" style="fill: white; fill-opacity: 1; pointer-events: none;"/><g transform="matrix(40.83333206176757, 0, 0, 40.83333206176757, -86.80773493243623, -59.00000497277879)"><path d="M19 7v2.99s-1.99.01-2 0V7h-3s.01-1.99 0-2h3V2h2v3h3v2h-3zm-3 4V8h-3V5H5c-1.1 0-2 .9-2 2v12c0 1.1.9 2 2 2h12c1.1 0 2-.9 2-2v-8h-3zM5 19l3-4 2 3 3-4 4 5H5z"/><path d="M0 0h24v24H0z" fill="none"/></g><g transform="matrix(2.968078107203182, 0, 0, 2.968078107203182, -88.0443012443959, 286.42080930277854)"><g id="Layer_2_4_" transform="matrix(1, 0, 0, 1, 0, 0)">
	<g id="Layer_1-2_4_">
		<path class="st0" d="M58,49h100v100H58V49z" style="fill: rgb(0, 0, 0);"/>
	</g>
</g></g><g transform="matrix(2.983207047814649, 0, 0, 2.983207047814649, 181.02049623742263, 308.65102844998864)"><g id="g-3" transform="matrix(1, 0, 0, 1, 0, 0)">
	<g id="g-4">
		<path class="st0" d="M58,49h100v100H58V49z" style="fill: rgb(0, 0, 0);"/>
	</g>
</g></g></g><g transform="matrix(40.83333206176757, 0, 0, 40.83333206176757, 630.1628897105595, 18.82736175359709)"><path d="M0 0h24v24H0z" fill="none"/><path d="M 11.389749526977539 6.372133731842041" style="fill: rgb(255, 255, 255); fill-opacity: 1; stroke: rgb(0, 0, 0); stroke-opacity: 1; stroke-width: 0; paint-order: fill;" transform="matrix(0.8542178273200989, 0, 0, 0.8542178273200989, -16.42252345493365, 4.190387962998686)"/></g><g transform="matrix(40.83333206176757, 0, 0, 40.83333206176757, 621.3029547676902, 48.729642185780705)"><path d="M0 0h24v24H0z" fill="none"/><path d="M 4.907530784606934 3.1988301277160645" style="fill: rgb(255, 255, 255); fill-opacity: 1; stroke: rgb(255, 255, 255); stroke-opacity: 1; stroke-width: 0; paint-order: fill;"/></g><g transform="matrix(34.04994428088776, 0, 0, 34.04994428088776, -48.7296257019043, 223.71335889565668)"><path d="M0 0h24v24H0z" fill="none"/></g><g transform="matrix(40.833333333333336, 0, 0, 40.833333333333336, 0.000016898984540603124, 1.4210854715202004e-14)"><path d="M0 0h24v24H0z" fill="none"/><path d="M18 16.08c-.76 0-1.44.3-1.96.77L8.91 12.7c.05-.23.09-.46.09-.7s-.04-.47-.09-.7l7.05-4.11c.54.5 1.25.81 2.04.81 1.66 0 3-1.34 3-3s-1.34-3-3-3-3 1.34-3 3c0 .24.04.47.09.7L8.04 9.81C7.5 9.31 6.79 9 6 9c-1.66 0-3 1.34-3 3s1.34 3 3 3c.79 0 1.5-.31 2.04-.81l7.12 4.16c-.05.21-.08.43-.08.65 0 1.61 1.31 2.92 2.92 2.92 1.61 0 2.92-1.31 2.92-2.92s-1.31-2.92-2.92-2.92z" transform="matrix(0.641075074672699, 0, 0, 0.641075074672699, 0.9682861064574979, 7.949002955774991)" style="fill: rgb(255, 255, 255);"/></g></svg>