<?xml version="1.0" encoding="utf-8"?>
<svg id="master-artboard" viewBox="0 0 341 299.1160583496094" version="1.1" xmlns="http://www.w3.org/2000/svg" x="0px" y="0px" style="enable-background:new 0 0 1400 980;" width="341px" height="299.1160583496094px"><rect id="ee-background" x="0" y="0" width="341" height="299.1160583496094" style="fill: rgb(255, 255, 255); fill-opacity: 1; pointer-events: none;"/><defs><style id="ee-google-fonts">@import url(https://fonts.googleapis.com/css?family=Fjalla+One:400|Roboto:100,100italic,300,300italic,400,400italic,500,500italic,700,700italic,900,900italic);</style></defs>
<g transform="matrix(8.54403018951416, 0, 0, 8.54403018951416, 185.26971435546875, -41.055641174316406)"><path d="M0 0h24v24H0z" fill="none"/></g><g transform="matrix(19.41666603088379, 0, 0, 19.41666603088379, -95.2442855834961, -71.06412506103516)"><path fill="none" d="M0 0h24v24H0z"/></g><g transform="matrix(0.9219843002932544, 0.8992530488134669, -0.8992530488134669, 0.9219843002932544, 404.3131454034206, -1026.1920957054986)"><path d="M 562.5999755859375 646.9000244140625 L 545.5999755859375 629.9000244140625 L 518.7000122070312 656.7000122070312 L 491.8999938964844 629.9000244140625 L 474.8999938964844 646.9000244140625 L 501.70001220703125 673.7999877929688 L 474.8999938964844 700.5999755859375 L 491.8999938964844 717.5999755859375 L 518.7000122070312 690.7999877929688 L 545.5999755859375 717.5999755859375 L 562.5999755859375 700.5999755859375 L 535.7999877929688 673.7999877929688 Z" class="st0" style="fill: rgb(51, 51, 51);" transform="matrix(1, 0, 0, 1, 0, 0)"/></g><g transform="matrix(12.463169097900389, 0, 0, 12.463169097900389, -28.63724730388276, 18.266027731765533)"><path d="M0 0h24v24H0z" fill="none"/></g><g transform="matrix(-13.713521957397463, 0, 0, 13.713521957397463, 274.39295134003123, 36.53205552642382)"><path d="M14 17H4v2h10v-2zm6-8H4v2h16V9zM4 15h16v-2H4v2zM4 5v2h16V5H4z"/><path d="M0 0h24v24H0z" fill="none"/></g></svg>