<?xml version="1.0" encoding="UTF-8" standalone="no"?>
<svg
   xmlns:dc="http://purl.org/dc/elements/1.1/"
   xmlns:cc="http://creativecommons.org/ns#"
   xmlns:rdf="http://www.w3.org/1999/02/22-rdf-syntax-ns#"
   xmlns:svg="http://www.w3.org/2000/svg"
   xmlns="http://www.w3.org/2000/svg"
   xmlns:sodipodi="http://sodipodi.sourceforge.net/DTD/sodipodi-0.dtd"
   xmlns:inkscape="http://www.inkscape.org/namespaces/inkscape"
   width="24"
   height="24"
   viewBox="0 0 24 24"
   version="1.1"
   id="svg6"
   sodipodi:docname="add_graph.svg"
   inkscape:version="0.92.4 (5da689c313, 2019-01-14)">
  <metadata
     id="metadata12">
    <rdf:RDF>
      <cc:Work
         rdf:about="">
        <dc:format>image/svg+xml</dc:format>
        <dc:type
           rdf:resource="http://purl.org/dc/dcmitype/StillImage" />
      </cc:Work>
    </rdf:RDF>
  </metadata>
  <defs
     id="defs10" />
  <sodipodi:namedview
     pagecolor="#ffffff"
     bordercolor="#666666"
     borderopacity="1"
     objecttolerance="10"
     gridtolerance="10"
     guidetolerance="10"
     inkscape:pageopacity="0"
     inkscape:pageshadow="2"
     inkscape:window-width="1920"
     inkscape:window-height="1027"
     id="namedview8"
     showgrid="false"
     inkscape:zoom="27.812867"
     inkscape:cx="22.967277"
     inkscape:cy="11.391221"
     inkscape:window-x="-8"
     inkscape:window-y="-8"
     inkscape:window-maximized="1"
     inkscape:current-layer="svg6" />
  <path
     d="M 24,0 V 24 H 0 V 0 Z"
     id="path2"
     inkscape:connector-curvature="0"
     style="fill:none" />
  <path
     d="m 6.2979984,17.924045 c 0,-0.76 -0.3,-1.44 -0.77,-1.96 l 4.15,-7.1299996 c 0.23,0.05 0.4599996,0.09 0.6999996,0.09 0.24,0 0.47,-0.04 0.7,-0.09 l 4.11,7.0499996 c -0.5,0.54 -0.81,1.25 -0.81,2.04 0,1.66 1.34,3 3,3 1.66,0 3,-1.34 3,-3 0,-1.66 -1.34,-3 -3,-3 -0.24,0 -0.47,0.04 -0.7,0.09 l -4.11,-7.0499996 c 0.5,-0.54 0.81,-1.25 0.81,-2.04 0,-1.66 -1.34,-3 -3,-3 -1.6599996,0 -2.9999996,1.34 -2.9999996,3 0,0.79 0.31,1.5 0.81,2.04 l -4.16,7.1199996 c -0.21,-0.05 -0.43,-0.08 -0.65,-0.08 -1.61,0 -2.92000001,1.31 -2.92000001,2.92 0,1.61 1.31000001,2.92 2.92000001,2.92 1.61,0 2.92,-1.31 2.92,-2.92 z"
     id="path4"
     inkscape:connector-curvature="0" />
  <rect
     style="opacity:0.86000001;fill:#000000;fill-opacity:1;stroke-width:1.13942361"
     id="rect822"
     width="1.9866644"
     height="7.2450147"
     x="18.090424"
     y="3.1912022" />
  <rect
     style="opacity:0.86000001;fill:#000000;fill-opacity:1;stroke-width:1.13942361"
     id="rect822-3"
     width="1.9866644"
     height="7.2450147"
     x="5.8096867"
     y="-22.750347"
     transform="rotate(90)" />
</svg>
