<?xml version="1.0" encoding="utf-8"?>
<svg id="master-artboard" viewBox="0 0 980 980" version="1.1" xmlns="http://www.w3.org/2000/svg" x="0px" y="0px" style="enable-background:new 0 0 1400 980;" width="980px" height="980px"><rect id="ee-background" x="0" y="0" width="980" height="980" style="fill: white; fill-opacity: 1; pointer-events: none;"/>


<g transform="matrix(1.185006022453308, 0, 0, 1.185006022453308, -3.7458644163555164, -1.7005689301186067e-8)"><rect id="rect-1" x="0" y="0" width="827" height="827" style="fill: white; fill-opacity: 1; pointer-events: none;"/><g transform="matrix(40.83333206176757, 0, 0, 40.83333206176757, -86.80773493243623, -59.00000497277879)"><path d="M19 7v2.99s-1.99.01-2 0V7h-3s.01-1.99 0-2h3V2h2v3h3v2h-3zm-3 4V8h-3V5H5c-1.1 0-2 .9-2 2v12c0 1.1.9 2 2 2h12c1.1 0 2-.9 2-2v-8h-3zM5 19l3-4 2 3 3-4 4 5H5z"/><path d="M0 0h24v24H0z" fill="none"/></g><g transform="matrix(2.968078107203182, 0, 0, 2.968078107203182, -88.0443012443959, 286.42080930277854)"><g id="Layer_2_4_" transform="matrix(1, 0, 0, 1, 0, 0)">
	<g id="Layer_1-2_4_">
		<path class="st0" d="M58,49h100v100H58V49z" style="fill: rgb(0, 0, 0);"/>
	</g>
</g></g><g transform="matrix(2.983207047814649, 0, 0, 2.983207047814649, 181.02049623742263, 308.65102844998864)"><g id="g-3" transform="matrix(1, 0, 0, 1, 0, 0)">
	<g id="g-4">
		<path class="st0" d="M58,49h100v100H58V49z" style="fill: rgb(0, 0, 0);"/>
	</g>
</g></g></g><g transform="matrix(34.04994428088776, 0, 0, 34.04994428088776, -48.7296257019043, 223.71335889565668)"><path d="M19 3H5c-1.1 0-2 .9-2 2v14c0 1.1.9 2 2 2h14c1.1 0 2-.9 2-2V5c0-1.1-.9-2-2-2zM9 17H7v-7h2v7zm4 0h-2V7h2v10zm4 0h-2v-4h2v4z"/><path d="M0 0h24v24H0z" fill="none"/></g><g transform="matrix(40.83333206176757, 0, 0, 40.83333206176757, 630.1628897105595, 18.82736175359709)"><path d="M0 0h24v24H0z" fill="none"/><path d="M10 20h4V4h-4v16zm-6 0h4v-8H4v8zM16 9v11h4V9h-4z" style="fill: rgb(255, 255, 255);" transform="matrix(0.7779364585876464, 0, 0, 0.7779364585876464, -15.775339686351238, 5.471914291381835)"/><path d="M 11.389749526977539 6.372133731842041" style="fill: rgb(255, 255, 255); fill-opacity: 1; stroke: rgb(0, 0, 0); stroke-opacity: 1; stroke-width: 0; paint-order: fill;" transform="matrix(0.8542178273200989, 0, 0, 0.8542178273200989, -16.42252345493365, 4.190387962998686)"/></g></svg>