<svg id="logo_light" xmlns="http://www.w3.org/2000/svg" width="184" height="51" viewBox="0 0 184 51">
  <metadata><?xpacket begin="﻿" id="W5M0MpCehiHzreSzNTczkc9d"?>
<x:xmpmeta xmlns:x="adobe:ns:meta/" x:xmptk="Adobe XMP Core 5.6-c142 79.160924, 2017/07/13-01:06:39        ">
   <rdf:RDF xmlns:rdf="http://www.w3.org/1999/02/22-rdf-syntax-ns#">
      <rdf:Description rdf:about=""/>
   </rdf:RDF>
</x:xmpmeta>
                                                                                                    
                                                                                                    
                                                                                                    
                                                                                                    
                                                                                                    
                                                                                                    
                                                                                                    
                                                                                                    
                                                                                                    
                                                                                                    
                                                                                                    
                                                                                                    
                                                                                                    
                                                                                                    
                                                                                                    
                                                                                                    
                                                                                                    
                                                                                                    
                                                                                                    
                                                                                                    
                           
<?xpacket end="w"?></metadata>
<defs>
    <style>
      .cls-1 {
        fill: #fff;
        fill-rule: evenodd;
      }
    </style>
  </defs>
  <path id="text" class="cls-1" d="M61.686,27.043v2.27a1.769,1.769,0,0,1-.384,1.24,1.276,1.276,0,0,1-.975.413,1.227,1.227,0,0,1-.956-0.418A1.8,1.8,0,0,1,59,29.313V21.747q0-1.831,1.31-1.831a1.086,1.086,0,0,1,.965.428,2.378,2.378,0,0,1,.325,1.263,4.713,4.713,0,0,1,.99-1.263,2.02,2.02,0,0,1,1.354-.428,3.417,3.417,0,0,1,1.644.428,1.277,1.277,0,0,1,.8,1.134,1.083,1.083,0,0,1-.34.822,1.047,1.047,0,0,1-.733.323,3.37,3.37,0,0,1-.714-0.184,3.254,3.254,0,0,0-1-.185,1.451,1.451,0,0,0-.965.314,2.013,2.013,0,0,0-.581.931,6.567,6.567,0,0,0-.285,1.469Q61.685,25.819,61.686,27.043Zm13.023-.936H69.451a3.639,3.639,0,0,0,.369,1.634,2.557,2.557,0,0,0,.956,1.065,2.494,2.494,0,0,0,1.314.358,3.186,3.186,0,0,0,.881-0.114,2.9,2.9,0,0,0,.773-0.36,5.859,5.859,0,0,0,.689-0.521c0.21-.187.483-0.438,0.817-0.757a0.87,0.87,0,0,1,.591-0.18,0.977,0.977,0,0,1,.67.229,0.826,0.826,0,0,1,.255.647,1.784,1.784,0,0,1-.285.862,3.387,3.387,0,0,1-.862.944,4.875,4.875,0,0,1-1.447.752,6.181,6.181,0,0,1-2,.3,5.328,5.328,0,0,1-4.027-1.493A5.6,5.6,0,0,1,66.7,25.42a6.832,6.832,0,0,1,.355-2.235,4.931,4.931,0,0,1,1.034-1.766,4.476,4.476,0,0,1,1.674-1.131,5.963,5.963,0,0,1,2.206-.392,5.2,5.2,0,0,1,2.7.671A4.413,4.413,0,0,1,76.363,22.3a4.619,4.619,0,0,1,.561,2.17,1.358,1.358,0,0,1-.581,1.33A3.59,3.59,0,0,1,74.709,26.107Zm-5.258-1.544h4.874a3.325,3.325,0,0,0-.743-2.085,2.218,2.218,0,0,0-1.7-.693,2.141,2.141,0,0,0-1.65.7A3.513,3.513,0,0,0,69.451,24.564Zm9.24-4.41h0.3V18.522q0-.657.034-1.031a1.535,1.535,0,0,1,.192-0.642,1.228,1.228,0,0,1,.454-0.453,1.28,1.28,0,0,1,.659-0.175,1.324,1.324,0,0,1,.925.389,1.149,1.149,0,0,1,.349.632,5.787,5.787,0,0,1,.074,1.06v1.853h0.985a1.257,1.257,0,0,1,.872.273,0.912,0.912,0,0,1,.3.7,0.785,0.785,0,0,1-.427.766,2.755,2.755,0,0,1-1.226.219h-0.5v5a8.217,8.217,0,0,0,.045.982,1,1,0,0,0,.238.557,0.8,0.8,0,0,0,.625.214,3.362,3.362,0,0,0,.64-0.085,3.313,3.313,0,0,1,.63-0.085,0.8,0.8,0,0,1,.585.265,0.892,0.892,0,0,1,.261.652,1.093,1.093,0,0,1-.709,1.005,4.737,4.737,0,0,1-2.037.348,3.494,3.494,0,0,1-1.911-.428,1.985,1.985,0,0,1-.852-1.185,8.128,8.128,0,0,1-.2-2.021V22.115H78.633a1.266,1.266,0,0,1-.887-0.278,0.917,0.917,0,0,1-.306-0.706,0.887,0.887,0,0,1,.321-0.7A1.4,1.4,0,0,1,78.691,20.154ZM88.77,27.043v2.27a1.767,1.767,0,0,1-.384,1.24,1.274,1.274,0,0,1-.975.413,1.223,1.223,0,0,1-.955-0.418,1.794,1.794,0,0,1-.374-1.235V21.747q0-1.831,1.309-1.831a1.085,1.085,0,0,1,.965.428,2.375,2.375,0,0,1,.325,1.263,4.7,4.7,0,0,1,.99-1.263,2.019,2.019,0,0,1,1.354-.428,3.422,3.422,0,0,1,1.644.428,1.279,1.279,0,0,1,.8,1.134,1.085,1.085,0,0,1-.341.822,1.046,1.046,0,0,1-.732.323,3.348,3.348,0,0,1-.715-0.184,3.256,3.256,0,0,0-1-.185,1.452,1.452,0,0,0-.964.314,2.016,2.016,0,0,0-.581.931,6.539,6.539,0,0,0-.285,1.469Q88.77,25.819,88.77,27.043Zm16.214-1.6a6.446,6.446,0,0,1-.376,2.24,4.931,4.931,0,0,1-1.081,1.763,4.81,4.81,0,0,1-1.7,1.131,5.936,5.936,0,0,1-2.214.392,5.771,5.771,0,0,1-2.2-.4,4.879,4.879,0,0,1-2.772-2.892,6.482,6.482,0,0,1-.37-2.236,6.559,6.559,0,0,1,.374-2.26,4.935,4.935,0,0,1,1.072-1.751,4.735,4.735,0,0,1,1.695-1.121,6.356,6.356,0,0,1,4.41.005,4.816,4.816,0,0,1,1.7,1.134,4.912,4.912,0,0,1,1.077,1.752A6.5,6.5,0,0,1,104.984,25.44Zm-2.7,0a4.113,4.113,0,0,0-.723-2.588,2.338,2.338,0,0,0-1.944-.925,2.393,2.393,0,0,0-1.389.413,2.614,2.614,0,0,0-.925,1.219,5.033,5.033,0,0,0-.325,1.882A4.961,4.961,0,0,0,97.3,27.3a2.66,2.66,0,0,0,.916,1.221,2.514,2.514,0,0,0,3.348-.508A4.1,4.1,0,0,0,102.285,25.44Zm13.259,1.971a3.159,3.159,0,0,1-2.142,3.142,7.118,7.118,0,0,1-2.576.413,6.219,6.219,0,0,1-2.481-.448,3.629,3.629,0,0,1-1.526-1.119,2.277,2.277,0,0,1-.493-1.35,1.046,1.046,0,0,1,.316-0.766,1.074,1.074,0,0,1,.8-0.319,0.925,0.925,0,0,1,.65.209,2.281,2.281,0,0,1,.433.587,2.584,2.584,0,0,0,2.561,1.445,2.255,2.255,0,0,0,1.323-.363,1.028,1.028,0,0,0,.518-0.832,1.132,1.132,0,0,0-.537-1.046,6.57,6.57,0,0,0-1.767-.627,14.659,14.659,0,0,1-2.26-.732,3.721,3.721,0,0,1-1.394-1.01,2.336,2.336,0,0,1-.522-1.544,2.74,2.74,0,0,1,.484-1.544,3.314,3.314,0,0,1,1.422-1.16,5.424,5.424,0,0,1,2.27-.431,7.373,7.373,0,0,1,1.875.217,4.722,4.722,0,0,1,1.389.587,2.892,2.892,0,0,1,.847.817,1.615,1.615,0,0,1,.29.876,1.017,1.017,0,0,1-.31.766,1.223,1.223,0,0,1-.882.3,1.076,1.076,0,0,1-.7-0.238,4.691,4.691,0,0,1-.665-0.717,2.436,2.436,0,0,0-.719-0.639,2.242,2.242,0,0,0-1.122-.238,2.179,2.179,0,0,0-1.211.312,0.917,0.917,0,0,0-.483.781,0.851,0.851,0,0,0,.355.7,2.969,2.969,0,0,0,.955.453q0.6,0.178,1.655.436a8.772,8.772,0,0,1,2.042.739,3.413,3.413,0,0,1,1.2,1.009A2.258,2.258,0,0,1,115.544,27.411Zm3.9-5.972v0.328a5.341,5.341,0,0,1,1.575-1.389,3.827,3.827,0,0,1,1.851-.443,4.247,4.247,0,0,1,2.284.647,4.457,4.457,0,0,1,1.651,1.892,6.667,6.667,0,0,1,.6,2.946,7.3,7.3,0,0,1-.349,2.306,5.181,5.181,0,0,1-.961,1.761,4.18,4.18,0,0,1-1.443,1.1,4.227,4.227,0,0,1-1.787.382,3.713,3.713,0,0,1-1.935-.469,5.583,5.583,0,0,1-1.491-1.374v4.082q0,1.793-1.29,1.791a1.032,1.032,0,0,1-1-.462,2.937,2.937,0,0,1-.245-1.35V21.458a1.72,1.72,0,0,1,.334-1.16,1.154,1.154,0,0,1,.915-0.382,1.2,1.2,0,0,1,.931.392A1.617,1.617,0,0,1,119.447,21.439Zm5.269,3.951a4.742,4.742,0,0,0-.326-1.848,2.709,2.709,0,0,0-.9-1.184,2.147,2.147,0,0,0-1.276-.414,2.384,2.384,0,0,0-1.876.886,3.9,3.9,0,0,0-.762,2.608,3.806,3.806,0,0,0,.757,2.523,2.364,2.364,0,0,0,1.881.9,2.132,2.132,0,0,0,1.24-.394,2.689,2.689,0,0,0,.917-1.18A4.724,4.724,0,0,0,124.716,25.391Zm11.72,0.717h-5.257a3.632,3.632,0,0,0,.369,1.634,2.552,2.552,0,0,0,.956,1.065,2.491,2.491,0,0,0,1.313.358,3.177,3.177,0,0,0,.881-0.114,2.915,2.915,0,0,0,.774-0.36,5.943,5.943,0,0,0,.688-0.521c0.21-.187.482-0.438,0.818-0.757a0.869,0.869,0,0,1,.591-0.18,0.973,0.973,0,0,1,.669.229,0.824,0.824,0,0,1,.255.647,1.778,1.778,0,0,1-.285.862,3.372,3.372,0,0,1-.862.944,4.84,4.84,0,0,1-1.448.752,6.162,6.162,0,0,1-2,.3,5.327,5.327,0,0,1-4.026-1.493,5.6,5.6,0,0,1-1.439-4.053,6.845,6.845,0,0,1,.355-2.235,4.935,4.935,0,0,1,1.034-1.766,4.48,4.48,0,0,1,1.674-1.131A5.958,5.958,0,0,1,133.7,19.9a5.2,5.2,0,0,1,2.7.671A4.422,4.422,0,0,1,138.09,22.3a4.617,4.617,0,0,1,.561,2.17,1.358,1.358,0,0,1-.581,1.33A3.586,3.586,0,0,1,136.436,26.107Zm-5.257-1.544h4.872a3.322,3.322,0,0,0-.742-2.085,2.216,2.216,0,0,0-1.7-.693,2.139,2.139,0,0,0-1.65.7A3.5,3.5,0,0,0,131.179,24.564ZM149.911,27.6a2.335,2.335,0,0,1-.3,1.083,3.722,3.722,0,0,1-.915,1.1,4.7,4.7,0,0,1-1.552.842,6.51,6.51,0,0,1-2.106.317,5.117,5.117,0,0,1-3.89-1.467,5.477,5.477,0,0,1-1.4-3.938,6.549,6.549,0,0,1,.64-2.956A4.612,4.612,0,0,1,142.24,20.6a6.243,6.243,0,0,1,4.81-.394,5.012,5.012,0,0,1,1.477.8,3.8,3.8,0,0,1,.925,1.041,2.063,2.063,0,0,1,.321,1.031,1.1,1.1,0,0,1-.36.827,1.224,1.224,0,0,1-.871.338,0.865,0.865,0,0,1-.556-0.175,2.674,2.674,0,0,1-.5-0.562,4.1,4.1,0,0,0-1.03-1.134,2.507,2.507,0,0,0-3.283.562,4.1,4.1,0,0,0-.729,2.573,5.054,5.054,0,0,0,.186,1.409,3.2,3.2,0,0,0,.543,1.1,2.33,2.33,0,0,0,.856.686,2.577,2.577,0,0,0,1.1.234,2.453,2.453,0,0,0,1.382-.379,3.273,3.273,0,0,0,1.019-1.155,2.67,2.67,0,0,1,.533-0.717,1,1,0,0,1,.7-0.258,1.031,1.031,0,0,1,.816.377A1.227,1.227,0,0,1,149.911,27.6Zm1.846-7.448h0.295V18.522c0-.438.012-0.781,0.034-1.031a1.541,1.541,0,0,1,.191-0.642,1.241,1.241,0,0,1,.454-0.453,1.287,1.287,0,0,1,.66-0.175,1.322,1.322,0,0,1,.925.389,1.142,1.142,0,0,1,.349.632,5.653,5.653,0,0,1,.074,1.06v1.853h0.985a1.253,1.253,0,0,1,.871.273,0.905,0.905,0,0,1,.3.7,0.785,0.785,0,0,1-.428.766,2.755,2.755,0,0,1-1.227.219h-0.5v5a8.35,8.35,0,0,0,.044.982,1.01,1.01,0,0,0,.237.557,0.8,0.8,0,0,0,.626.214,3.339,3.339,0,0,0,.64-0.085,3.318,3.318,0,0,1,.63-0.085,0.8,0.8,0,0,1,.585.265,0.891,0.891,0,0,1,.262.652,1.094,1.094,0,0,1-.709,1.005,4.738,4.738,0,0,1-2.038.348,3.492,3.492,0,0,1-1.911-.428,1.984,1.984,0,0,1-.851-1.185,8.045,8.045,0,0,1-.2-2.021V22.115H151.7a1.266,1.266,0,0,1-.887-0.278,0.919,0.919,0,0,1-.306-0.706,0.888,0.888,0,0,1,.321-0.7A1.4,1.4,0,0,1,151.757,20.154Zm8.768-1.5a1.4,1.4,0,0,1-.959-0.35,1.359,1.359,0,0,1,.01-1.934,1.358,1.358,0,0,1,.949-0.374,1.408,1.408,0,0,1,.928.338,1.217,1.217,0,0,1,.4.987,1.246,1.246,0,0,1-.395.98A1.353,1.353,0,0,1,160.525,18.651Zm1.331,2.807v7.855a1.763,1.763,0,0,1-.385,1.235,1.265,1.265,0,0,1-.974.418,1.21,1.21,0,0,1-.961-0.428,1.825,1.825,0,0,1-.369-1.224V21.538a1.76,1.76,0,0,1,.369-1.214,1.231,1.231,0,0,1,.961-0.407,1.274,1.274,0,0,1,.974.407A1.586,1.586,0,0,1,161.856,21.458Zm4.25,0.149,2.177,6.173,2.343-6.441a3.913,3.913,0,0,1,.541-1.1,0.986,0.986,0,0,1,.808-0.323,1.208,1.208,0,0,1,.872.348,1.089,1.089,0,0,1,.359.8,1.68,1.68,0,0,1-.064.419,4.144,4.144,0,0,1-.148.447c-0.055.141-.119,0.3-0.191,0.479l-2.58,6.471c-0.072.185-.166,0.421-0.28,0.706a3.743,3.743,0,0,1-.385.732,1.517,1.517,0,0,1-.522.472,1.541,1.541,0,0,1-.753.17,1.456,1.456,0,0,1-.912-0.263,1.785,1.785,0,0,1-.5-0.577q-0.16-.316-0.546-1.24l-2.561-6.4c-0.059-.16-0.119-0.319-0.182-0.479a4.226,4.226,0,0,1-.157-0.487,1.776,1.776,0,0,1-.064-0.428,1.054,1.054,0,0,1,.168-0.552,1.3,1.3,0,0,1,.463-0.448,1.243,1.243,0,0,1,.64-0.173,1.015,1.015,0,0,1,.921.387A6.239,6.239,0,0,1,166.106,21.607Zm15.682,4.5H176.53a3.646,3.646,0,0,0,.369,1.634,2.561,2.561,0,0,0,.954,1.065,2.5,2.5,0,0,0,1.315.358,3.175,3.175,0,0,0,.88-0.114,2.921,2.921,0,0,0,.775-0.36,5.943,5.943,0,0,0,.688-0.521c0.21-.187.484-0.438,0.818-0.757a0.869,0.869,0,0,1,.591-0.18,0.971,0.971,0,0,1,.669.229,0.826,0.826,0,0,1,.257.647,1.792,1.792,0,0,1-.286.862,3.414,3.414,0,0,1-.861.944,4.889,4.889,0,0,1-1.448.752,6.188,6.188,0,0,1-2,.3,5.33,5.33,0,0,1-4.027-1.493,5.6,5.6,0,0,1-1.438-4.053,6.872,6.872,0,0,1,.354-2.235,4.937,4.937,0,0,1,1.035-1.766,4.46,4.46,0,0,1,1.673-1.131,5.967,5.967,0,0,1,2.207-.392,5.2,5.2,0,0,1,2.7.671,4.422,4.422,0,0,1,1.688,1.737,4.6,4.6,0,0,1,.561,2.17,1.361,1.361,0,0,1-.579,1.33A3.6,3.6,0,0,1,181.788,26.107Zm-5.258-1.544H181.4a3.328,3.328,0,0,0-.744-2.085,2.217,2.217,0,0,0-1.7-.693,2.139,2.139,0,0,0-1.65.7A3.511,3.511,0,0,0,176.53,24.564Z"/>
  <g id="symbol">
    <path id="shape" class="cls-1" d="M0-.007H28.171A22.835,22.835,0,0,1,51.005,22.828l0,28.176m0,0L22.831,51A22.835,22.835,0,0,1,0,28.168V-0.007m48.325,36.19M25.5,45.19A19.692,19.692,0,1,1,45.193,25.5,19.714,19.714,0,0,1,25.5,45.19h0Zm22.82-9.008"/>
    <path id="shape-2" data-name="shape" class="cls-1" d="M25.5,15.652a9.822,9.822,0,0,0-3.3.578,3.391,3.391,0,0,1-5.186,4.289A9.839,9.839,0,1,0,25.5,15.652Zm22.819,20.53"/>
  </g>
</svg>
